<svg xmlns="http://www.w3.org/2000/svg" width="781" height="440" viewBox="0 0 781 440"><title>sql-injection_1</title><rect x="330.09" y="202.19" width="90.36" height="93.16" fill="none" stroke="#ffaf10" stroke-miterlimit="10" stroke-width="2"/><line x1="344.21" y1="221.34" x2="356.68" y2="221.34" fill="none" stroke="#ffaf10" stroke-miterlimit="10" stroke-width="2"/><line x1="365.39" y1="221.34" x2="405.67" y2="221.34" fill="none" stroke="#ffaf10" stroke-miterlimit="10" stroke-width="2"/><line x1="344.21" y1="231.23" x2="356.68" y2="231.23" fill="none" stroke="#ffaf10" stroke-miterlimit="10" stroke-width="2"/><line x1="365.39" y1="231.23" x2="405.67" y2="231.23" fill="none" stroke="#ffaf10" stroke-miterlimit="10" stroke-width="2"/><line x1="344.21" y1="241.12" x2="356.68" y2="241.12" fill="none" stroke="#ffaf10" stroke-miterlimit="10" stroke-width="2"/><line x1="365.39" y1="241.12" x2="405.67" y2="241.12" fill="none" stroke="#ffaf10" stroke-miterlimit="10" stroke-width="2"/><line x1="344.21" y1="251.01" x2="356.68" y2="251.01" fill="none" stroke="#ffaf10" stroke-miterlimit="10" stroke-width="2"/><line x1="365.39" y1="251.01" x2="405.67" y2="251.01" fill="none" stroke="#ffaf10" stroke-miterlimit="10" stroke-width="2"/><line x1="621.92" y1="225.2" x2="638.04" y2="225.2" fill="none" stroke="#60bcd8" stroke-miterlimit="10" stroke-width="2"/><line x1="646.74" y1="225.2" x2="659.84" y2="225.2" fill="none" stroke="#ffaf10" stroke-miterlimit="10" stroke-width="2"/><line x1="621.92" y1="235.09" x2="638.04" y2="235.09" fill="none" stroke="#60bcd8" stroke-miterlimit="10" stroke-width="2"/><line x1="646.74" y1="235.09" x2="659.84" y2="235.09" fill="none" stroke="#ffaf10" stroke-miterlimit="10" stroke-width="2"/><line x1="621.92" y1="244.98" x2="638.04" y2="244.98" fill="none" stroke="#60bcd8" stroke-miterlimit="10" stroke-width="2"/><line x1="646.74" y1="244.98" x2="659.84" y2="244.98" fill="none" stroke="#ffaf10" stroke-miterlimit="10" stroke-width="2"/><line x1="621.92" y1="254.87" x2="638.04" y2="254.87" fill="none" stroke="#60bcd8" stroke-miterlimit="10" stroke-width="2"/><line x1="646.74" y1="254.87" x2="659.84" y2="254.87" fill="none" stroke="#60bcd8" stroke-miterlimit="10" stroke-width="2"/><line x1="669.24" y1="225.2" x2="695.51" y2="225.2" fill="none" stroke="#ffaf10" stroke-miterlimit="10" stroke-width="2"/><line x1="704.22" y1="225.2" x2="717.32" y2="225.2" fill="none" stroke="#60bcd8" stroke-miterlimit="10" stroke-width="2"/><line x1="669.24" y1="235.09" x2="695.51" y2="235.09" fill="none" stroke="#ffaf10" stroke-miterlimit="10" stroke-width="2"/><line x1="704.22" y1="235.09" x2="717.32" y2="235.09" fill="none" stroke="#60bcd8" stroke-miterlimit="10" stroke-width="2"/><line x1="669.24" y1="244.98" x2="695.51" y2="244.98" fill="none" stroke="#ffaf10" stroke-miterlimit="10" stroke-width="2"/><line x1="704.22" y1="244.98" x2="717.32" y2="244.98" fill="none" stroke="#60bcd8" stroke-miterlimit="10" stroke-width="2"/><line x1="669.24" y1="254.87" x2="695.51" y2="254.87" fill="none" stroke="#60bcd8" stroke-miterlimit="10" stroke-width="2"/><line x1="704.22" y1="254.87" x2="717.32" y2="254.87" fill="none" stroke="#60bcd8" stroke-miterlimit="10" stroke-width="2"/><line x1="621.92" y1="185.24" x2="638.04" y2="185.24" fill="none" stroke="#60bcd8" stroke-miterlimit="10" stroke-width="2"/><line x1="646.74" y1="185.24" x2="659.84" y2="185.24" fill="none" stroke="#60bcd8" stroke-miterlimit="10" stroke-width="2"/><line x1="621.92" y1="195.13" x2="638.04" y2="195.13" fill="none" stroke="#60bcd8" stroke-miterlimit="10" stroke-width="2"/><line x1="646.74" y1="195.13" x2="659.84" y2="195.13" fill="none" stroke="#60bcd8" stroke-miterlimit="10" stroke-width="2"/><line x1="621.92" y1="205.02" x2="638.04" y2="205.02" fill="none" stroke="#60bcd8" stroke-miterlimit="10" stroke-width="2"/><line x1="646.74" y1="205.02" x2="659.84" y2="205.02" fill="none" stroke="#60bcd8" stroke-miterlimit="10" stroke-width="2"/><line x1="621.92" y1="214.91" x2="638.04" y2="214.91" fill="none" stroke="#60bcd8" stroke-miterlimit="10" stroke-width="2"/><line x1="646.74" y1="214.91" x2="659.84" y2="214.91" fill="none" stroke="#ffaf10" stroke-miterlimit="10" stroke-width="2"/><line x1="669.24" y1="185.24" x2="695.51" y2="185.24" fill="none" stroke="#60bcd8" stroke-miterlimit="10" stroke-width="2"/><line x1="704.22" y1="185.24" x2="717.32" y2="185.24" fill="none" stroke="#60bcd8" stroke-miterlimit="10" stroke-width="2"/><line x1="669.24" y1="195.13" x2="695.51" y2="195.13" fill="none" stroke="#60bcd8" stroke-miterlimit="10" stroke-width="2"/><line x1="704.22" y1="195.13" x2="717.32" y2="195.13" fill="none" stroke="#60bcd8" stroke-miterlimit="10" stroke-width="2"/><line x1="669.24" y1="205.02" x2="695.51" y2="205.02" fill="none" stroke="#60bcd8" stroke-miterlimit="10" stroke-width="2"/><line x1="704.22" y1="205.02" x2="717.32" y2="205.02" fill="none" stroke="#60bcd8" stroke-miterlimit="10" stroke-width="2"/><line x1="669.24" y1="214.91" x2="695.51" y2="214.91" fill="none" stroke="#ffaf10" stroke-miterlimit="10" stroke-width="2"/><line x1="704.22" y1="214.91" x2="717.32" y2="214.91" fill="none" stroke="#60bcd8" stroke-miterlimit="10" stroke-width="2"/><line x1="621.92" y1="264.77" x2="638.04" y2="264.77" fill="none" stroke="#60bcd8" stroke-miterlimit="10" stroke-width="2"/><line x1="646.74" y1="264.77" x2="659.84" y2="264.77" fill="none" stroke="#60bcd8" stroke-miterlimit="10" stroke-width="2"/><line x1="621.92" y1="274.66" x2="638.04" y2="274.66" fill="none" stroke="#60bcd8" stroke-miterlimit="10" stroke-width="2"/><line x1="646.74" y1="274.66" x2="659.84" y2="274.66" fill="none" stroke="#60bcd8" stroke-miterlimit="10" stroke-width="2"/><line x1="621.92" y1="284.55" x2="638.04" y2="284.55" fill="none" stroke="#60bcd8" stroke-miterlimit="10" stroke-width="2"/><line x1="646.74" y1="284.55" x2="659.84" y2="284.55" fill="none" stroke="#60bcd8" stroke-miterlimit="10" stroke-width="2"/><line x1="669.24" y1="264.77" x2="695.51" y2="264.77" fill="none" stroke="#60bcd8" stroke-miterlimit="10" stroke-width="2"/><line x1="704.22" y1="264.77" x2="717.32" y2="264.77" fill="none" stroke="#60bcd8" stroke-miterlimit="10" stroke-width="2"/><line x1="669.24" y1="274.66" x2="695.51" y2="274.66" fill="none" stroke="#60bcd8" stroke-miterlimit="10" stroke-width="2"/><line x1="704.22" y1="274.66" x2="717.32" y2="274.66" fill="none" stroke="#60bcd8" stroke-miterlimit="10" stroke-width="2"/><line x1="669.24" y1="284.55" x2="695.51" y2="284.55" fill="none" stroke="#60bcd8" stroke-miterlimit="10" stroke-width="2"/><line x1="704.22" y1="284.55" x2="717.32" y2="284.55" fill="none" stroke="#60bcd8" stroke-miterlimit="10" stroke-width="2"/><path d="M628,262.8c0,9.34-.16,4.29-.29,10.55-.16,7.29-20.83,13.21-46.52,13.21s-46.52-5.92-46.52-13.21c0-3.19.29-7.85.29-10.55" fill="#d0f1f7" stroke="#60bcd8" stroke-miterlimit="10" stroke-width="2"/><ellipse cx="581.45" cy="262.8" rx="46.52" ry="13.22" fill="#fff" stroke="#60bcd8" stroke-miterlimit="10" stroke-width="2"/><path d="M628,241.6c0,9.34-.16,4.29-.29,10.55-.16,7.29-20.83,13.21-46.52,13.21s-46.52-5.92-46.52-13.21c0-3.19.29-7.85.29-10.55" fill="#d0f1f7" stroke="#60bcd8" stroke-miterlimit="10" stroke-width="2"/><ellipse cx="581.45" cy="241.6" rx="46.52" ry="13.22" fill="#fff" stroke="#60bcd8" stroke-miterlimit="10" stroke-width="2"/><path d="M628,219.74c0,9.34-.16,4.28-.29,10.54-.16,7.3-20.83,13.22-46.52,13.22s-46.52-5.92-46.52-13.22c0-3.18.29-7.85.29-10.54" fill="#d0f1f7" stroke="#60bcd8" stroke-miterlimit="10" stroke-width="2"/><ellipse cx="581.45" cy="219.74" rx="46.52" ry="13.22" fill="#fff" stroke="#60bcd8" stroke-miterlimit="10" stroke-width="2"/><path d="M628,196.84c0,9.34-.16,4.28-.29,10.54-.16,7.3-20.83,13.22-46.52,13.22s-46.52-5.92-46.52-13.22c0-3.18.29-7.85.29-10.54" fill="#d0f1f7" stroke="#60bcd8" stroke-miterlimit="10" stroke-width="2"/><ellipse cx="581.45" cy="196.84" rx="46.52" ry="13.22" fill="#fff" stroke="#60bcd8" stroke-miterlimit="10" stroke-width="2"/><path d="M94.13,146.34c-3.69-.58-2.75,3.59-3.06,10.83a9.1,9.1,0,0,0,3.83,8.19" fill="none" stroke="#4c5054" stroke-miterlimit="10" stroke-width="2"/><path d="M106.57,150.42c-5.5,3.25-5.92,8.44-5.17,14.56.21,1.69-5.33-1-9,1.35-4.25,15.4,9.17,18.59,9.17,20.59v10.61c0,4.62,15.25,15.64,28.25,15.64s26.75-13,26.75-15.64-.25-6.86,0-10.86c9.75-4.5,11-19.75,8.25-20.34a28.67,28.67,0,0,0-7.75-.84c0-7.42-1.75-14.79-9.75-14.79h-34.5c-11.64,0-17.24-2.48-19.8-5.45a8,8,0,0,1-2-5.33c0-4.5,4.75-6.1-2.42-10.86,4-1.16,13,.47,14.92,5,1.87-3.53,7.47-14.15,1.75-20,5.25,1.75,14.42,10.58,12.83,20.75,5.58-4.75,9.57-19.63,8.08-23.71,6.64,5.21,10.1,16.71,8.43,25.83,4.75-.16,12.41-8.62,10.11-19.62,6,6.75,10.09,14,8.28,22.31,5.27,1.44,8.41-4.56,9.27-9.56,8.84,21.12-.27,35.72-.27,35.72" fill="none" stroke="#4c5054" stroke-miterlimit="10" stroke-width="2"/><path d="M112.57,208.1a63,63,0,0,1,0,13.07c-.75,7.25-10.75,8-25,11-8.58,1.16-26.25,36.75-26.25,50.56,0,6.5,18.71,40.33,18.71,40.33" fill="none" stroke="#4c5054" stroke-miterlimit="10" stroke-width="2"/><path d="M145.1,208.1a63,63,0,0,0,0,13.07c.75,7.25,10.75,8,25,11,16.89,6.54,24.21,43.32,27.56,55.15-1.83,10-19.2,35.74-19.2,35.74" fill="none" stroke="#4c5054" stroke-miterlimit="10" stroke-width="2"/><path d="M128.58,228.92c.4,0,.79,0,1.17,0,7.5-.16,11.72-1.91,16-5.36,2.33,2.6,6.85,6.12,8.94,5.37s-11.14,9.75-26.15,8.75-21-5.19-23.26-9.47c2.89-1.23,5.89-2.27,6.57-4.65C116.12,228.17,123.07,229.25,128.58,228.92Z" fill="#4c5054" stroke="#4c5054" stroke-miterlimit="10" stroke-width="2"/><polygon points="166.42 258.38 94.75 258.38 94.57 247.87 166.42 246.83 166.42 258.38" fill="#4c5054"/><polygon points="169.32 271.43 91.27 271.43 91.06 267.86 168.19 267.86 169.32 271.43" fill="#4c5054"/><path d="M100.69,164.44c4.91-2.16,18.86,0,27.85,5.29,5.57-5.75,22.86-7.92,28.8-5.55a2.11,2.11,0,0,0,.92,1.66c-3.55,1.39-9.55,10-14.82,11.31-2.36.58-13.66-2.05-16-1.56a59.09,59.09,0,0,1-13.25,1.46c-6.48.19-13.48-10.73-13.48-10.73Z" fill="#4c5054" stroke="#4c5054" stroke-miterlimit="10" stroke-width="2"/><polyline points="183.14 315.78 191.59 315.78 178.44 343.53 80.64 343.53 65.58 315.78 74.96 315.78" fill="none" stroke="#4c5054" stroke-miterlimit="10" stroke-width="2"/><polygon points="72.02 271.23 186.47 271.23 175.29 343.53 83.19 343.53 72.02 271.23" fill="#fff" stroke="#4c5054" stroke-miterlimit="10" stroke-width="2"/><polyline points="65.58 315.78 80.64 347.76 178.44 347.76 191.59 315.78" fill="none" stroke="#4c5054" stroke-miterlimit="10" stroke-width="2"/><path d="M127.4,192c-1.83.17-6.83,2.1-9.25,1.27" fill="#4c5054" stroke="#4c5054" stroke-miterlimit="10" stroke-width="2"/><path d="M129.49,192c1.83,0,6.25,2.23,9.25,1.48" fill="#4c5054" stroke="#4c5054" stroke-miterlimit="10" stroke-width="2"/><line x1="124.02" y1="199" x2="133.14" y2="199" fill="none" stroke="#4c5054" stroke-miterlimit="10" stroke-width="2"/><path d="M77.3,244.15c2.85,5.6,15.23,14.06,17.45,14.23s2.9-9.74,2.9-9.74C90.22,244.86,84.82,240.5,83,235.5Z" fill="#4c5054"/><path d="M71.27,252.63c4.63,5.92,24.13,16.79,26.38,16.2-.5,1.59-2.91,2.6-3.75,2.6.34.36-17.25-.93-17.25-.93s-11-5.4-10-7.84C67.81,259.85,71.68,252.58,71.27,252.63Z" fill="#4c5054"/><path d="M62.36,275.49c1.42,1.17,9.58,4.32,10.94,4-.06.8,1.1,9.64,1.1,9.64s-11.23.48-12.82-1.85C61.82,284.5,62.36,275.49,62.36,275.49Z" fill="#4c5054"/><path d="M67.86,299.64c5.4.09,8.33-1.41,8.19-2.29s1.17,7.56,1.17,7.56,3.6,4.2-4.32,4.78C70.16,307.15,67.86,299.64,67.86,299.64Z" fill="#4c5054"/><path d="M181.94,244.15c-2.86,5.6-13.3,14.06-15.52,14.23s-5.84-8.83-5.84-8.83c7.5-2.17,13.84-9.05,15.63-14.05Z" fill="#4c5054"/><path d="M187.22,253.83c-4.64,5.92-19.64,15.17-21.89,14.59.51,1.58-.83,3,0,3-.33.36,17.25-.93,17.25-.93s9.25-4.45,8.25-6.88C189.68,260.8,186.8,253.78,187.22,253.83Z" fill="#4c5054"/><path d="M194.67,276.25c-1.42,1.17-7.38,3.56-8.73,3.28.06.8-1.11,9.64-1.11,9.64s11.24.48,12.83-1.85C197.42,284.5,194.67,276.25,194.67,276.25Z" fill="#4c5054"/><path d="M192.89,299.08c-5.39.1-9.84-.85-9.71-1.73s-1.17,7.56-1.17,7.56-2.56,3.45,5.36,4C190.11,306.4,192.89,299.08,192.89,299.08Z" fill="#4c5054"/><polyline points="298.82 278.19 278.54 278.19 278.54 192.72 267.34 192.72 267.34 136.24 254.52 136.24 254.52 97.58 242.72 97.58 242.72 109.33 272.57 109.33 272.57 44.91" fill="none" stroke="#cbd0d1" stroke-miterlimit="10"/><polyline points="185.94 279.53 220.32 279.53 220.32 165.36 207.32 165.36 207.32 179.57 227.98 179.57 227.98 117.91 173.65 117.91 173.65 92.91 193.96 92.91 193.96 79.83 54.19 79.83 54.19 53.02" fill="none" stroke="#cbd0d1" stroke-miterlimit="10"/><polyline points="581.15 192.8 581.15 145.99 572.32 145.99 572.32 160.11 598.65 160.11 598.65 111.11" fill="none" stroke="#cbd0d1" stroke-miterlimit="10"/><polyline points="448.65 277.99 465.91 277.99 465.91 210.05 494.35 210.05 494.35 181.32 478.35 181.32 478.82 148.76 496.32 148.76 496.32 119.58" fill="none" stroke="#cbd0d1" stroke-miterlimit="10"/><polyline points="736.9 230.64 755.51 230.64 755.51 341.09 506.33 342.76 464.01 343.05 464.01 309.69 453.35 309.69" fill="none" stroke="#d60000" stroke-miterlimit="10"/><rect x="344.21" y="267.16" width="63.05" height="19.82" fill="#fcf1e0"/><polygon points="214.32 249.03 220.32 240.22 226.32 249.22 214.32 249.03" fill="#cbd0d1"/><polygon points="294.51 271.99 303.32 277.99 294.32 283.99 294.51 271.99" fill="#cbd0d1"/><polygon points="284.57 203.79 278.57 212.6 272.57 203.6 284.57 203.79" fill="#cbd0d1"/><polygon points="459.91 247.81 465.91 239 471.91 248 459.91 247.81" fill="#cbd0d1"/><polygon points="587.3 188.49 581.3 197.3 575.3 188.3 587.3 188.49" fill="#cbd0d1"/><polygon points="761.32 318.02 755.32 326.83 749.32 317.83 761.32 318.02" fill="#d60000"/><polygon points="528.65 349.05 519.84 343.05 528.84 337.05 528.65 349.05" fill="#d60000"/><line x1="621.92" y1="294.49" x2="638.04" y2="294.49" fill="none" stroke="#60bcd8" stroke-miterlimit="10" stroke-width="2"/><line x1="646.74" y1="294.49" x2="659.84" y2="294.49" fill="none" stroke="#60bcd8" stroke-miterlimit="10" stroke-width="2"/><line x1="621.92" y1="304.38" x2="638.04" y2="304.38" fill="none" stroke="#60bcd8" stroke-miterlimit="10" stroke-width="2"/><line x1="646.74" y1="304.38" x2="659.84" y2="304.38" fill="none" stroke="#60bcd8" stroke-miterlimit="10" stroke-width="2"/><line x1="669.24" y1="294.49" x2="695.51" y2="294.49" fill="none" stroke="#60bcd8" stroke-miterlimit="10" stroke-width="2"/><line x1="704.22" y1="294.49" x2="717.32" y2="294.49" fill="none" stroke="#60bcd8" stroke-miterlimit="10" stroke-width="2"/><line x1="669.24" y1="304.38" x2="695.51" y2="304.38" fill="none" stroke="#60bcd8" stroke-miterlimit="10" stroke-width="2"/><line x1="704.22" y1="304.38" x2="717.32" y2="304.38" fill="none" stroke="#60bcd8" stroke-miterlimit="10" stroke-width="2"/><line x1="723.77" y1="225.2" x2="736.87" y2="225.2" fill="none" stroke="#d60000" stroke-miterlimit="10" stroke-width="2"/><line x1="723.77" y1="235.09" x2="736.87" y2="235.09" fill="none" stroke="#d60000" stroke-miterlimit="10" stroke-width="2"/><line x1="723.77" y1="244.98" x2="736.87" y2="244.98" fill="none" stroke="#d60000" stroke-miterlimit="10" stroke-width="2"/><line x1="723.77" y1="254.87" x2="736.87" y2="254.87" fill="none" stroke="#d60000" stroke-miterlimit="10" stroke-width="2"/><line x1="723.77" y1="195.13" x2="736.87" y2="195.13" fill="none" stroke="#d60000" stroke-miterlimit="10" stroke-width="2"/><line x1="723.77" y1="205.02" x2="736.87" y2="205.02" fill="none" stroke="#d60000" stroke-miterlimit="10" stroke-width="2"/><line x1="723.77" y1="214.91" x2="736.87" y2="214.91" fill="none" stroke="#d60000" stroke-miterlimit="10" stroke-width="2"/><line x1="723.77" y1="264.77" x2="736.87" y2="264.77" fill="none" stroke="#d60000" stroke-miterlimit="10" stroke-width="2"/><line x1="723.77" y1="274.66" x2="736.87" y2="274.66" fill="none" stroke="#d60000" stroke-miterlimit="10" stroke-width="2"/><line x1="723.77" y1="284.55" x2="736.87" y2="284.55" fill="none" stroke="#d60000" stroke-miterlimit="10" stroke-width="2"/><line x1="723.77" y1="294.49" x2="736.87" y2="294.49" fill="none" stroke="#d60000" stroke-miterlimit="10" stroke-width="2"/><polyline points="723.77 185.24 736.87 185.24 736.87 304.38 723.77 304.38" fill="none" stroke="#d60000" stroke-miterlimit="10" stroke-width="2"/><polygon points="457.47 314.94 448.65 308.94 457.65 302.94 457.47 314.94" fill="#d60000"/><polygon points="292.82 322.52 286.82 331.33 280.82 322.33 292.82 322.52" fill="#d60000"/><polygon points="133.79 406.91 124.98 400.91 133.98 394.91 133.79 406.91" fill="#d60000"/><polygon points="40.95 358.11 46.95 349.3 52.95 358.3 40.95 358.11" fill="#d60000"/><rect x="304.51" y="163.35" width="143.11" height="22.57" fill="#fcf1e0" stroke="#ffaf10" stroke-miterlimit="10" stroke-width="2"/><line x1="380.3" y1="174.55" x2="391.2" y2="174.55" fill="none" stroke="#ffaf10" stroke-miterlimit="10" stroke-width="2"/><line x1="396.36" y1="174.55" x2="407.26" y2="174.55" fill="none" stroke="#ffaf10" stroke-miterlimit="10" stroke-width="2"/><line x1="412.31" y1="174.55" x2="423.2" y2="174.55" fill="none" stroke="#ffaf10" stroke-miterlimit="10" stroke-width="2"/><line x1="428.37" y1="174.55" x2="439.26" y2="174.55" fill="none" stroke="#ffaf10" stroke-miterlimit="10" stroke-width="2"/><ellipse cx="325.61" cy="174.64" rx="13.4" ry="5.26" fill="#fff" stroke="#ffaf10" stroke-miterlimit="10" stroke-width="2"/><path d="M360,278.42a2.57,2.57,0,0,1-.18,1,2.15,2.15,0,0,1-.55.75,2.45,2.45,0,0,1-.89.48,4,4,0,0,1-1.2.17,5.4,5.4,0,0,1-1.15-.12,4.56,4.56,0,0,1-1-.37V278.7l.54.25.56.22.56.15a2.75,2.75,0,0,0,.57.05,1.77,1.77,0,0,0,.49-.06.75.75,0,0,0,.33-.18.83.83,0,0,0,.19-.27,1,1,0,0,0,.05-.36.87.87,0,0,0-.09-.4,1.23,1.23,0,0,0-.28-.33,1.81,1.81,0,0,0-.43-.3l-.55-.31c-.17-.09-.37-.2-.58-.33a2.64,2.64,0,0,1-.6-.47,2.6,2.6,0,0,1-.48-.68,2.36,2.36,0,0,1-.19-1,2.55,2.55,0,0,1,.18-1,2.2,2.2,0,0,1,.52-.74,2.25,2.25,0,0,1,.82-.45,3.29,3.29,0,0,1,1.07-.16,3.9,3.9,0,0,1,.59,0c.18,0,.37.06.56.11s.37.11.55.18a5.64,5.64,0,0,1,.58.25l-.56,1.35-.47-.21-.43-.15-.4-.09a2.83,2.83,0,0,0-.41,0,.9.9,0,0,0-.67.23.85.85,0,0,0-.23.62.87.87,0,0,0,.07.37,1,1,0,0,0,.23.3,2.19,2.19,0,0,0,.39.28c.17.1.36.21.6.33s.53.31.77.46a3.15,3.15,0,0,1,.61.52,2,2,0,0,1,.39.64A2.18,2.18,0,0,1,360,278.42Z" fill="#ffaf10"/><path d="M367.74,272.5v5.3a3.5,3.5,0,0,1-.19,1.19,2.56,2.56,0,0,1-1.58,1.59,3.89,3.89,0,0,1-1.39.23,3.66,3.66,0,0,1-1.34-.22,2.47,2.47,0,0,1-1-.61,2.54,2.54,0,0,1-.59-1,3.47,3.47,0,0,1-.21-1.24V272.5h1.74v5.15a2.93,2.93,0,0,0,.09.78,1.38,1.38,0,0,0,.26.53,1.23,1.23,0,0,0,.44.3,1.93,1.93,0,0,0,.62.09,1.26,1.26,0,0,0,1.06-.42,2.12,2.12,0,0,0,.33-1.29V272.5Z" fill="#ffaf10"/><path d="M369.75,272.5h2.4a6.86,6.86,0,0,1,1.36.11,2.9,2.9,0,0,1,1,.35,1.65,1.65,0,0,1,.59.64,2.18,2.18,0,0,1,.2,1,2.27,2.27,0,0,1-.09.65,1.77,1.77,0,0,1-.24.54,1.45,1.45,0,0,1-.4.38,1.55,1.55,0,0,1-.53.21v0a3.47,3.47,0,0,1,.57.19,1.53,1.53,0,0,1,.78.91,2.5,2.5,0,0,1,.11.82,2.44,2.44,0,0,1-.19,1,2.17,2.17,0,0,1-.56.75,2.75,2.75,0,0,1-.9.47,4.26,4.26,0,0,1-1.18.16h-2.9Zm1.74,3.25h.9a2.15,2.15,0,0,0,.55-.06.89.89,0,0,0,.35-.18.61.61,0,0,0,.19-.29,1.09,1.09,0,0,0,.06-.42.74.74,0,0,0-.29-.67,1.64,1.64,0,0,0-.93-.21h-.83Zm0,1.38v2.13h1a1.66,1.66,0,0,0,.58-.08.86.86,0,0,0,.58-.57,1.7,1.7,0,0,0,.06-.46,1.33,1.33,0,0,0-.06-.42.69.69,0,0,0-.21-.32,1,1,0,0,0-.39-.21,2.06,2.06,0,0,0-.6-.07Z" fill="#ffaf10"/><path d="M380.43,280.7l-1.8-6.44h-.05c0,.35,0,.68.05,1,0,.14,0,.28,0,.43s0,.29,0,.43,0,.28,0,.41v4.17h-1.55v-8.2h2.37l1.77,6.27h0l1.89-6.27h2.36v8.2h-1.62v-4.21c0-.13,0-.26,0-.4s0-.28,0-.42,0-.28,0-.41c0-.32,0-.64,0-1h0l-2,6.42Z" fill="#ffaf10"/><path d="M390.68,280.7H387v-1l1-.46v-5.31l-1-.46v-1h3.73v1l-1,.46v5.31l1,.46Z" fill="#ffaf10"/><path d="M395.08,280.7h-1.74v-6.76h-2.06V272.5h5.85v1.44h-2.05Z" fill="#ffaf10"/><polyline points="80.82 334.08 46.95 334.08 46.95 379.59 71.72 379.59 71.72 401.74" fill="none" stroke="#d60000" stroke-miterlimit="10"/><polyline points="304.01 309.69 286.82 309.69 286.82 349.3 210.65 349.3 210.65 400.91 71.72 401.74" fill="none" stroke="#d60000" stroke-miterlimit="10"/><path d="M142.4,312.15l.35-.07h0c.35-.06.69-.1,1-.14l.18,0,.37-.05h0l.33-.06h0a3.84,3.84,0,0,0,.79-.25,1.72,1.72,0,0,0,.87-.93,1.32,1.32,0,0,0-.54-1.75,2.21,2.21,0,0,0-.06-.62,1.6,1.6,0,0,0-1.12-1.31,2,2,0,0,0-.41-.05,1.91,1.91,0,0,0-1.5.83,4.72,4.72,0,0,1-1.44,1.14l-.74.35v0l-.52.24c-.48.22-1,.45-1.52.68.28-4.33,2.21-8,.17-10.8s-5.8-3.51-9.39-3.58h-.86a16.61,16.61,0,0,0-5.31.89l-.19.07a7.78,7.78,0,0,0-3.44,2.48c-1.68,2.22-.41,4.93.29,8.05l.08.36a13,13,0,0,1,.3,2.36,4.51,4.51,0,0,1,0,.52v.05a4.94,4.94,0,0,0,.57,2.37,32.9,32.9,0,0,0-4.77-1.76c-1.93-.5-3.56-.19-3.66-1.83a.91.91,0,0,1,.68-.72,1.33,1.33,0,0,0,.5.65,1.46,1.46,0,0,1,.38-2.39c1.25-.24,1.18,1,2.93,2,1,.52,2.11,1.09,3.37,1.68v0a4.34,4.34,0,0,0,0-.51c-1.17-.55-2.24-1.09-3.12-1.57a3.87,3.87,0,0,1-.54-.34l-.15-.12a6.6,6.6,0,0,1-.7-.72,1.94,1.94,0,0,0-1.47-.9,2.12,2.12,0,0,0-.42,0,1.63,1.63,0,0,0-1.17,1.26,2.7,2.7,0,0,0-.08.62,1.36,1.36,0,0,0-.72,1.1,1.8,1.8,0,0,0,1,1.59,5.46,5.46,0,0,0,1.73.45c.44.07.89.14,1.37.26a39,39,0,0,1,5.36,2h0a10.22,10.22,0,0,0,1.75,1.78l.08.06.31.26.18.18-.12.05-.83.29-.11,0a37.68,37.68,0,0,1-5,1.4,24.75,24.75,0,0,1-2.69.31,6.74,6.74,0,0,0-2.14.34,1.76,1.76,0,0,0-1.08,1.64,2,2,0,0,0,.46,1.41,1.61,1.61,0,0,0,.74.49,2.22,2.22,0,0,0,0,.73,1.57,1.57,0,0,0,.94,1.21,2.54,2.54,0,0,0,.88.19,1.44,1.44,0,0,0,.59-.09l.36-.16a6.06,6.06,0,0,0,1-.84,10.31,10.31,0,0,1,2.32-1.81,29.58,29.58,0,0,1,4.15-1.87l1-.39.44-.15h0l.36-.13.09,0s.47.45.63.56a5.93,5.93,0,0,0,3.53.92c2.12,0,3.25-.52,4-1.26h0c1.18.48,2.36,1,3.45,1.49.49.23,1.77.92,1.77.92l.57.34a10.94,10.94,0,0,1,2.25,1.9c.61.65,1.1,1.16,1.91,1.17a2.26,2.26,0,0,0,.88-.16,1.49,1.49,0,0,0,.84-.74,2.06,2.06,0,0,0,.2-.65,2.9,2.9,0,0,0,0-.51h0l0,0a1.61,1.61,0,0,0,.71-.44,2,2,0,0,0,.52-1.39,1.77,1.77,0,0,0-1-1.68,6.78,6.78,0,0,0-2.11-.43l-.47,0-.75-.09-.28,0v0c-.37-.06-.76-.13-1.18-.23a28.56,28.56,0,0,1-3.26-1l-.77-.28-1.79-.69h0a.91.91,0,0,1,.18-.21,7.57,7.57,0,0,1,.72-.53c.36-.25,1.34-1.05,1.34-1.05a5.07,5.07,0,0,0,.61-.68h0l1-.38.11,0c.59-.22,1.17-.42,1.71-.6l.08,0C141.15,312.46,141.81,312.28,142.4,312.15Zm-18,6.11h0l-.6.22-.52.2-.44.16h0c-1.18.46-2.32.93-3.32,1.43,0,0,0,0-.16.08l-.67.36c-2.87,1.65-3,3.39-4.71,2.69-1-.39-.77-2-.14-2.58a1.48,1.48,0,0,0-.52.69,1.29,1.29,0,0,1-1.19-1.44c.15-1.89,2-1.24,5.21-1.78l.14,0,.14,0a43.78,43.78,0,0,0,6.27-1.86l.08,0,0,.09c.3.47.45,1.07.78,1.66h0ZM129,319.9Zm.12-.59.08-.11A.59.59,0,0,1,129.09,319.31Zm7.2-1.93.55.2h0l.21.07h0l.11,0h0l.44.16a26.63,26.63,0,0,0,2.75.81c.56.13,1.08.21,1.56.28l.44.06,1,.1h.07c1.5.17,2.33.33,2.39,1.59a1.3,1.3,0,0,1-1.25,1.39,1.39,1.39,0,0,0-.5-.7,2,2,0,0,1,.37,1.94v0a1,1,0,0,1-.6.58c-1.78.63-1.8-1.1-4.6-2.86l-.65-.39c-.46-.26-1.94-1-1.94-1-1-.47-2.07-.92-3.13-1.35a11.6,11.6,0,0,0,.91-1.72Zm.2-3.18,0,0Zm1.48-3.81,0,.57c0,.14,0,.28,0,.42a3.34,3.34,0,0,1-.54,1.89,3.25,3.25,0,0,1-1,1c-.91.56-1.94.75-2.32,1.11a2.21,2.21,0,0,0-.34.48,4,4,0,0,0-.21.47,3.45,3.45,0,0,1-.51.94,2.67,2.67,0,0,1-.05.93.66.66,0,0,1-.36.33l-.11,0-.12,0a1.11,1.11,0,0,1-.1-.59v-.08l-.06,0v0a3.42,3.42,0,0,1,0,.55c.06.43-.56.8-.6-.24,0-.05,0-.09,0-.14l-.11,0v.08c0,.51.15,1-.35,1.09s-.41-.37-.36-1.05l-.3,0c0,.56.28,1.23-.49,1.22a.87.87,0,0,1-.31-.05c-.27-.11-.25-.55-.25-.55,0-.17,0-.37.05-.59h-.31c0,.49.21,1-.29,1.15h-.2c-.72,0-.57-.47-.51-1.22l-.22,0c0,.53.08,1.12-.36,1s-.4-.45-.36-1.13l-.1,0c0,.44,0,.83-.3.76s-.32-.3-.3-.73a1.34,1.34,0,0,1,0-.2l-.06,0a1.66,1.66,0,0,1,0,.24c0,.68-.39.3-.56.2a.56.56,0,0,1-.27-.45v-.22a1.89,1.89,0,0,0,0-.27,2.67,2.67,0,0,1-.46-.63v0c-.11-.21-.2-.43-.31-.64a3,3,0,0,0-.28-.44l-.07-.09c-.32-.36-1.23-.68-2.07-1.28a4.19,4.19,0,0,1-1-1,3.56,3.56,0,0,1-.61-2.15,1.69,1.69,0,0,0,0-.23c0-.19,0-.38,0-.57l0-.34a10.5,10.5,0,0,1,.61-2.28h0c0-.09.08-.19.12-.29l.07-.15v0c1.07-2.24,1.25-4,.86-5.06l-.28-.34c-.16.37-.45,1.86-1,3.73l0,.19c-.13.49-.27,1-.43,1.51a.36.36,0,0,1,0,.11l-.14.54-.06.28c0-.11,0-.22-.08-.33l-.14-.6c-.66-2.66-1.53-5-.09-6.94a8.55,8.55,0,0,1,2-1.89s1.07-.68,1.34-.81a12.33,12.33,0,0,1,10.57-.35.23.23,0,0,1,.21.1,9.65,9.65,0,0,1,3.88,3.07,4.4,4.4,0,0,1,.44.79l.11.26c.69,1.91.06,4.16-.39,6.71,0-.2-.08-.4-.14-.6-.52-2-.84-3.8-1-4.79l-.07-.33c-.08-.34-.14-.5-.19-.43a2.89,2.89,0,0,0-.19.35,6.13,6.13,0,0,0-.22.81,8.53,8.53,0,0,0,.86,4.33,9.44,9.44,0,0,1,.7,2.71A1.5,1.5,0,0,1,138,310.39Zm.85,2.33-.18.06L138,313a5,5,0,0,0,.51-2.18s0-.08,0-.13h0l1.28-.56.66-.3,1.09-.52c1.79-.89,1.77-2.16,3-1.87a1.46,1.46,0,0,1,.28,2.4,1.39,1.39,0,0,0,.53-.63.93.93,0,0,1,.65.74c-.09.94-.66,1.22-1.49,1.37l-.61.08c-.37,0-.77.09-1.19.16h0l-.43.08A27.58,27.58,0,0,0,138.82,312.72Z" fill="#4c5054"/><path d="M130.75,314.58l-.13-.7c-.23-1.21-1-2.25-1.37-2.26s-1,.78-1.34,1.76c0,.14-.08.29-.11.45v.05a11.68,11.68,0,0,0-.27,2.06c0,.46.16.41.38.17l.2-.24.09-.11h0l0-.06h0l.09-.12c.3-.39.62-.78.87-.77s.42.24.66.52l.2.26c.56.74,1,1.49.79-.42C130.81,315,130.78,314.8,130.75,314.58Z" fill="#4c5054"/><path d="M128.34,308.09c-.16-.92-1.14-.93-3.91-1.43a1.64,1.64,0,0,0-.44,0h-.08l-.21.05-.25.1a3.33,3.33,0,0,0-1.54,2.95v0a5.9,5.9,0,0,0,.06.59v0h0a2.23,2.23,0,0,0,.1.43s0,.05,0,.07a1.94,1.94,0,0,0,.39.67,2,2,0,0,0,.7.51,5,5,0,0,0,1.5.26,3.65,3.65,0,0,0,.55-.05h.12a6.14,6.14,0,0,0,.74-.18A3.37,3.37,0,0,0,128.34,308.09Z" fill="#4c5054"/><path d="M136.51,308.75l0,0c0-.14-.09-.28-.14-.41h0l-.07-.17a3.81,3.81,0,0,0-.23-.4l0,0h0a1.87,1.87,0,0,0-1.78-.93l-.88.12h-.05l0,0h0l0,0c-2.07.28-2.85.35-3,1.16a3.37,3.37,0,0,0,2.07,4.1,4.7,4.7,0,0,0,2.35.25,3.36,3.36,0,0,0,.71-.22l.1-.05.05,0h0a1.31,1.31,0,0,0,.19-.12,2,2,0,0,0,.26-.24l.06-.06a1.91,1.91,0,0,0,.32-.56,3.79,3.79,0,0,0,.13-2.25Z" fill="#4c5054"/><ellipse cx="115.36" cy="171.01" rx="4.19" ry="2.28" fill="#fff"/><ellipse cx="141.8" cy="171.01" rx="4.19" ry="2.28" fill="#fff"/><line x1="342.32" y1="277.99" x2="340.82" y2="277.99" fill="none" stroke="#dce3e5" stroke-miterlimit="10" stroke-width="2"/><line x1="337.8" y1="277.99" x2="309.14" y2="277.99" fill="none" stroke="#dce3e5" stroke-miterlimit="10" stroke-width="2" stroke-dasharray="3.02 3.02"/><line x1="307.63" y1="277.99" x2="306.13" y2="277.99" fill="none" stroke="#dce3e5" stroke-miterlimit="10" stroke-width="2"/><line x1="445.15" y1="278.19" x2="443.65" y2="278.19" fill="none" stroke="#dce3e5" stroke-miterlimit="10" stroke-width="2"/><line x1="440.63" y1="278.19" x2="411.97" y2="278.19" fill="none" stroke="#dce3e5" stroke-miterlimit="10" stroke-width="2" stroke-dasharray="3.02 3.02"/><line x1="410.46" y1="278.19" x2="408.96" y2="278.19" fill="none" stroke="#dce3e5" stroke-miterlimit="10" stroke-width="2"/><line x1="446.46" y1="309.69" x2="444.96" y2="309.69" fill="none" stroke="#d60000" stroke-miterlimit="10" stroke-width="2"/><line x1="441.99" y1="309.69" x2="306.99" y2="309.69" fill="none" stroke="#d60000" stroke-miterlimit="10" stroke-width="2" stroke-dasharray="2.97 2.97"/><line x1="305.51" y1="309.69" x2="304.01" y2="309.69" fill="none" stroke="#d60000" stroke-miterlimit="10" stroke-width="2"/><rect x="304.51" y="185.92" width="143.11" height="131.78" fill="none" stroke="#ffaf10" stroke-miterlimit="10" stroke-width="2"/><polygon points="490.24 120.72 496.24 111.91 502.24 120.91 490.24 120.72" fill="#cbd0d1"/><path d="M157.06,165.49c0-7.42-1.75-14.79-9.75-14.79h-34.5c-11.64,0-17.24-2.48-19.8-5.45a7.94,7.94,0,0,1-2-5.33c0-4.5,4.74-6.1-2.42-10.86,4-1.16,13,.47,14.91,5,1.88-3.53,7.48-14.15,1.75-20,5.25,1.75,14.42,10.58,12.84,20.75,5.58-4.75,9.56-19.63,8.08-23.71,6.63,5.21,10.09,16.71,8.42,25.83,4.75-.16,12.41-8.62,10.12-19.62,6,6.75,10.08,14,8.28,22.31,5.26,1.44,8.4-4.56,9.26-9.56,8.85,21.12-.26,35.72-.26,35.72Z" fill="#4c5054"/><path d="M92.4,166.33c3.67-2.35,9.21.34,9-1.35-.75-6.12-.33-11.31,5.17-14.56l-12.44-4.08c-3.69-.58-2.75,3.59-3.06,10.83a9.1,9.1,0,0,0,3.83,8.19" fill="#4c5054"/><polygon points="48.19 57.33 54.19 48.52 60.19 57.52 48.19 57.33" fill="#cbd0d1"/><rect x="17.97" y="18.35" width="399.67" height="30" fill="#ebf0f2" stroke="#4c5054" stroke-miterlimit="10"/><rect x="294.32" y="67.51" width="468.44" height="42.66" fill="#ebf0f2" stroke="#4c5054" stroke-miterlimit="10"/><text transform="translate(21.97 35.92)" font-size="14" fill="#333332" font-family="Courier-Bold, Courier" font-weight="700">&apos; UNION SELECT username, password FROM users--</text><text transform="translate(302.57 83.16)" font-size="14" fill="#333332" font-family="Courier-Bold, Courier" font-weight="700">SELECT name, description FROM products WHERE category <tspan x="0" y="16.8">= &apos;Gifts&apos; UNION SELECT username, password FROM users--</tspan></text><rect x="586.75" y="330.91" width="133.09" height="24.27" rx="11.43" ry="11.43" fill="#edd6d6" stroke="#d60000" stroke-miterlimit="10"/><text transform="translate(614.31 347.36)" font-size="14" fill="#d60000" font-family="Arial-BoldMT, Arial" font-weight="700">All passwords</text><path d="M601.64,336.92l-.48,4.35,4.41-1.23.39,3-4,.29,2.63,3.5-2.68,1.43-1.84-3.69-1.62,3.67-2.79-1.41,2.61-3.5-4-.31.46-3,4.31,1.23-.48-4.35Z" fill="#d60000"/><rect x="487.85" y="374.79" width="145.73" height="24.27" rx="12.13" ry="12.13" fill="#edd6d6" stroke="#d60000" stroke-miterlimit="10"/><text transform="translate(524.17 391.23)" font-size="14" fill="#d60000" font-family="Arial-BoldMT, Arial" font-weight="700">All usernames</text><path d="M509.52,386.4a4.54,4.54,0,0,0,2.19-4,3.93,3.93,0,1,0-7.78,0,4.52,4.52,0,0,0,2.37,4.1c-2.17,2.89-6.39.19-6.4,9h16.48C516.38,388.19,511.73,389.52,509.52,386.4Z" fill="none" stroke="#d60000" stroke-miterlimit="10"/><polygon points="508.14 395.9 506.74 394.24 507.56 388.35 506.79 387.29 507.58 386.61 508.26 386.61 509.1 387.25 508.43 388.31 509.68 394.21 508.14 395.9" fill="#d60000"/><polyline points="633.58 386.93 742.43 386.93 742.43 341.15" fill="none" stroke="#d60000" stroke-miterlimit="10"/><polyline points="487.85 386.93 464.05 386.93 464.05 343.05" fill="none" stroke="#d60000" stroke-miterlimit="10"/><polygon points="692.2 392.93 683.39 386.93 692.39 380.93 692.2 392.93" fill="#d60000"/></svg>